<svg xmlns="http://www.w3.org/2000/svg" width="981.2" height="180.4" viewBox="0 0 981.2 180.4">
  <path id="Path_3" data-name="Path 3" d="M67.6-55,48.8-35.4V0H16.6V-140H48.8v65.4l62-65.4h36l-58,62.4L150.2,0H112.4ZM209.2,1.6a64.52,64.52,0,0,1-30.5-7.1,52.781,52.781,0,0,1-21.1-19.7A54.28,54.28,0,0,1,150-53.8a54.28,54.28,0,0,1,7.6-28.6,52.781,52.781,0,0,1,21.1-19.7,64.521,64.521,0,0,1,30.5-7.1q17,0,30.4,7.1a52.946,52.946,0,0,1,21,19.7,54.28,54.28,0,0,1,7.6,28.6,54.28,54.28,0,0,1-7.6,28.6,52.946,52.946,0,0,1-21,19.7Q226.2,1.6,209.2,1.6Zm0-25.6q12,0,19.7-8.1t7.7-21.7q0-13.6-7.7-21.7t-19.7-8.1q-12,0-19.8,8.1t-7.8,21.7q0,13.6,7.8,21.7T209.2-24Zm145.2-85.2q20,0,32.3,12T399-61.6V0H367.8V-56.8q0-12.8-5.6-19.1T346-82.2q-11.8,0-18.8,7.3t-7,21.7V0H289V-107.6h29.8V-95a41.376,41.376,0,0,1,15.4-10.5A53.656,53.656,0,0,1,354.4-109.2ZM532-107.6,486.6,0H454.4L409.2-107.6h32.2l29.8,73.2L502-107.6ZM647.2-53.4q0,.6-.6,8.4H565.2a25.351,25.351,0,0,0,10.4,15.8q8.2,5.8,20.4,5.8a41.308,41.308,0,0,0,14.9-2.5A36.09,36.09,0,0,0,623-33.8l16.6,18Q624.4,1.6,595.2,1.6,577,1.6,563-5.5a52.047,52.047,0,0,1-21.6-19.7,54.28,54.28,0,0,1-7.6-28.6,54.985,54.985,0,0,1,7.5-28.5,52.542,52.542,0,0,1,20.6-19.8,60.483,60.483,0,0,1,29.3-7.1,60,60,0,0,1,28.6,6.8,49.632,49.632,0,0,1,20.1,19.5Q647.2-70.2,647.2-53.4ZM591.4-85.6q-10.6,0-17.8,6t-8.8,16.4h53A25.8,25.8,0,0,0,609-79.5,26.3,26.3,0,0,0,591.4-85.6Zm106.4-7.8a34.7,34.7,0,0,1,15.1-11.8,56.044,56.044,0,0,1,21.9-4v28.8q-5.2-.4-7-.4-13.4,0-21,7.5t-7.6,22.5V0H668V-107.6h29.8Zm165.6-14.2V-18q0,29.6-15.4,44T803,40.4a112.546,112.546,0,0,1-29.6-3.8q-14-3.8-23.2-11L762.6,3.2a51.032,51.032,0,0,0,17.2,8.9,68.439,68.439,0,0,0,20.8,3.3q16.2,0,23.9-7.3T832.2-14v-4.6Q820-5.2,798.2-5.2a57.1,57.1,0,0,1-27.1-6.5A49.537,49.537,0,0,1,751.6-30q-7.2-11.8-7.2-27.2t7.2-27.2a49.537,49.537,0,0,1,19.5-18.3,57.1,57.1,0,0,1,27.1-6.5q23.4,0,35.6,15.4v-13.8Zm-59,76.8q12.4,0,20.3-7.3t7.9-19.1q0-11.8-7.9-19.1t-20.3-7.3q-12.4,0-20.4,7.3t-8,19.1q0,11.8,8,19.1T804.4-30.8ZM997.8-53.4q0,.6-.6,8.4H915.8a25.351,25.351,0,0,0,10.4,15.8q8.2,5.8,20.4,5.8a41.308,41.308,0,0,0,14.9-2.5,36.089,36.089,0,0,0,12.1-7.9l16.6,18Q975,1.6,945.8,1.6q-18.2,0-32.2-7.1A52.047,52.047,0,0,1,892-25.2a54.28,54.28,0,0,1-7.6-28.6,54.985,54.985,0,0,1,7.5-28.5,52.542,52.542,0,0,1,20.6-19.8,60.483,60.483,0,0,1,29.3-7.1,60,60,0,0,1,28.6,6.8,49.632,49.632,0,0,1,20.1,19.5Q997.8-70.2,997.8-53.4ZM942-85.6q-10.6,0-17.8,6t-8.8,16.4h53a25.8,25.8,0,0,0-8.8-16.3A26.3,26.3,0,0,0,942-85.6Z" transform="translate(-16.6 140)" fill="#707070"/>
</svg>
