<svg xmlns="http://www.w3.org/2000/svg" width="1256.688" height="244" viewBox="0 0 1256.688 244">
  <g id="Group_2" data-name="Group 2" transform="translate(-285 -335)">
    <g id="Group_1" data-name="Group 1" transform="translate(1064 174)">
      <path id="Subtraction_1" data-name="Subtraction 1" d="M85.2,194H6.6V173l54-51c5.707-5.442,9.61-10.186,11.6-14.1a25.767,25.767,0,0,0,3-11.7c0-5.573-1.918-9.914-5.7-12.9s-9.4-4.5-16.7-4.5a38.536,38.536,0,0,0-16.6,3.5A31.943,31.943,0,0,0,23.8,92.8L.2,77.6A52.817,52.817,0,0,1,9.95,66.725,60.145,60.145,0,0,1,22.8,58.5a67.969,67.969,0,0,1,15.45-5.175A86.031,86.031,0,0,1,55.8,51.6a80,80,0,0,1,14.625,1.275A58.764,58.764,0,0,1,83.1,56.7a47.018,47.018,0,0,1,10.4,6.15,39.072,39.072,0,0,1,7.8,8.25,35.055,35.055,0,0,1,4.875,10.125A41.391,41.391,0,0,1,107.8,93a50.569,50.569,0,0,1-1.2,11.05A48.464,48.464,0,0,1,103,114.4a55.11,55.11,0,0,1-7.05,10.7A122.513,122.513,0,0,1,84.4,137.2L52.2,167.6h60.2v.231L85.2,194Zm43.775-42.12v0A101.539,101.539,0,0,1,125.4,124a108.8,108.8,0,0,1,1.925-21.025A76.778,76.778,0,0,1,133.1,85.1a64.352,64.352,0,0,1,9.175-14.376A53.784,53.784,0,0,1,154.4,60.2a54.437,54.437,0,0,1,14.55-6.45,64,64,0,0,1,32.9,0A54.437,54.437,0,0,1,216.4,60.2a53.325,53.325,0,0,1,4.528,3.205L199.812,83.723A22.76,22.76,0,0,0,185.4,79c-8.361,0-15.056,3.7-19.9,11-4.819,7.26-7.275,18.619-7.3,33.762l-29.222,28.118Z" transform="translate(256 112)" fill="#707070" stroke="rgba(0,0,0,0)" stroke-miterlimit="10" stroke-width="1"/>
      <path id="Intersection_1" data-name="Intersection 1" d="M203.9,242.725v-113.5h-28v-26h60.4v139.5Zm-140.8,0v-20.5l54-51q8.6-8.2,11.6-14.1a25.65,25.65,0,0,0,3-11.7q0-8.4-5.7-12.9a19.773,19.773,0,0,0-7.767-3.564l23.112-22.239a41.4,41.4,0,0,1,16.454,13.6,37.258,37.258,0,0,1,6.5,21.9,48.809,48.809,0,0,1-4.8,21.4q-4.8,10-18.6,22.8l-32.2,30.4h60.2v25.9Z" transform="translate(240.5 159.775)" fill="#707070" stroke="rgba(0,0,0,0)" stroke-miterlimit="10" stroke-width="1"/>
    </g>
    <text id="Konverge" transform="translate(285 529)" fill="#707070" font-size="200" font-family="Montserrat-Bold, Montserrat" font-weight="700"><tspan x="0" y="0">Konverge</tspan></text>
  </g>
</svg>
